<?xml version="1.0" encoding="utf-8"?>
<!-- Generator: Adobe Illustrator 16.0.0, SVG Export Plug-In . SVG Version: 6.00 Build 0)  -->
<!DOCTYPE svg PUBLIC "-//W3C//DTD SVG 1.1//EN" "http://www.w3.org/Graphics/SVG/1.1/DTD/svg11.dtd">
<svg version="1.1" id="Layer_1" xmlns="http://www.w3.org/2000/svg" xmlns:xlink="http://www.w3.org/1999/xlink" x="0px" y="0px"
	 width="383.204px" height="606.789px" viewBox="803.026 182.63 383.204 606.789"
	 enable-background="new 803.026 182.63 383.204 606.789" xml:space="preserve">
<path id="path37379" fill="#E5C100" d="M994.336,182.631c0,0-17.438,22.048-7.262,40.229c-6.035-4.317-14.633-9.536-20.971-9.606
	c-22.159-0.244-5.967,30.871,1.713,19.956c-5.465-8.522,11.256-12.061,15.762-3.382c2.549,4.901-15.122,18.691-5.93,17.543
	s10.281-7.328,10.281-7.328l3.182,7.666c-4.197,23.623-13.536,56.031-33.556,62.958c-16.137,5.585-32.491-12.397-41.289-24.443
	l0.632-8.682c0,0,2.889,5.484,11.951,3.541c9.063-1.942-12.039-9.156-11.183-14.635c1.515-9.698,18.501-12.008,16.032-2.142
	c10.727,7.798,16.18-26.882-4.714-19.348c-6.229,2.248-12.691,10.272-17.023,16.439c3.849-20.386-19.371-36.237-19.371-36.237
	s-9.509,26.864,6.201,40.657c-7.119-2.162-16.932-4.527-23.157-2.436c-21.047,7.073,4.129,31.259,7.938,18.4
	c-7.873-6.264,6.738-15.137,13.756-8.411c3.963,3.799-8.404,22.675-0.068,18.559c8.335-4.117,7.486-10.305,7.486-10.305l5.186,5.976
	c-0.13,16.582-2.751,44.69-17.34,48.795c-12.414,3.494-20.461,4.272-40.973-12.356l-1.285-4.285c0,0,5.165,3.352,12.289-2.683
	c7.126-6.033-14.821-2.37-16.571-7.623c-3.102-9.3,10.856-19.19,13.188-9.29c13.057,1.789,1.881-31.582-13.145-14.973
	c-4.445,4.913-6.401,15.001-7.42,22.504c-5.81-20.293-35.649-22.167-35.649-22.167c17.057,16.592,24.416,19.076,45.347,42.393
	c15.15,21.855,20.903,30.258,21.987,48.142l247.929,0.431c0,0-1.366-15.846,27.488-54.144
	c17.304-18.472,24.795-21.816,40.453-37.048c0,0-29.843,1.873-35.65,22.166c-1.018-7.503-2.975-17.592-7.421-22.504
	c-15.024-16.608-26.201,16.761-13.145,14.973c2.332-9.901,16.291-0.011,13.191,9.289c-1.753,5.253-23.699,1.59-16.574,7.624
	c7.124,6.032,12.313,2.684,12.313,2.684l-1.76,5.795c-12.938,11.414-24.96,20.108-40.271,13.688
	c-16.533-6.933-17.979-31.319-18.739-51.367l5.254-6.022c0,0-0.848,6.188,7.486,10.305c8.334,4.116-4.031-14.759-0.068-18.559
	c7.018-6.727,21.629,2.147,13.757,8.411c3.808,12.859,28.983-11.327,7.936-18.4c-6.226-2.091-16.062,0.274-23.179,2.436
	c15.711-13.793,6.223-40.657,6.223-40.657s-23.218,15.851-19.369,36.237c-4.332-6.167-10.796-14.191-17.023-16.439
	c-20.895-7.534-15.439,27.146-4.716,19.348c-2.468-9.866,14.494-7.556,16.012,2.142c0.856,5.479-20.225,12.692-11.161,14.635
	c9.062,1.943,11.949-3.541,11.949-3.541l0.543,7.667c-8.32,11.8-23.994,30.615-36.894,26.654
	c-22.257-6.836-32.563-40.425-37.16-64.516l2.954-7.192c0,0,1.091,6.18,10.282,7.328c9.192,1.149-8.478-12.641-5.931-17.543
	c4.509-8.679,21.228-5.163,15.763,3.361c7.679,10.914,23.873-20.179,1.714-19.935c-6.488,0.071-15.328,5.551-21.377,9.922
	C1011.314,205.257,994.335,182.63,994.336,182.631L994.336,182.631L994.336,182.631z"/>
<rect id="rect37397" x="869.643" y="380.882" opacity="0.9377" fill="#E5C100" enable-background="new" width="247.92" height="17.435"/>
<g>
	<path stroke="#E5C100" d="M913.428,449.813"/>
	<polygon fill="none" stroke="#E5C100" stroke-width="15" points="872.518,410.499 824.93,458.083 824.93,641.866 992.303,779.703 
		1159.677,641.866 1159.677,458.083 1112.09,410.499 992.303,410.499 	"/>
	<g>
		<polyline fill="none" stroke="#E5C100" stroke-width="15" points="992.713,452.888 927.077,452.888 881.313,498.655 
			881.313,591.82 927.031,637.537 927.031,681.521 		"/>
		<polyline fill="none" stroke="#E5C100" stroke-width="15" points="988.064,452.888 1057.891,452.888 1106.576,498.655 
			1106.576,591.82 1057.939,637.539 1057.939,681.523 		"/>
		<polygon fill="none" stroke="#E5C100" stroke-width="15" points="880.491,505.945 972.929,550.796 970.468,613.012 
			993.988,644.877 993.988,688.085 926.71,688.085 926.71,648.704 878.03,598.382 		"/>
		<polygon fill="none" stroke="#E5C100" stroke-width="15" points="1106.48,505.945 1016.504,550.796 1016.504,613.012 
			990.521,644.877 990.521,688.085 1057.8,688.085 1057.8,648.704 1106.48,598.382 		"/>
	</g>
	<line fill="none" stroke="#E5C100" stroke-width="15" x1="857.52" y1="475.963" x2="898.541" y2="434.941"/>
	<line fill="none" stroke="#E5C100" stroke-width="15" x1="1126.991" y1="475.963" x2="1085.969" y2="434.941"/>
	<polyline fill="none" stroke="#E5C100" stroke-width="15" points="925.735,528.645 925.735,573.771 970.86,573.771 	"/>
	<polyline fill="none" stroke="#E5C100" stroke-width="15" points="1016.806,573.771 1061.93,573.771 1061.93,528.645 	"/>
	<line fill="none" stroke="#E5C100" stroke-width="15" x1="970.468" y1="613.012" x2="1016.504" y2="613.012"/>
</g>
</svg>
